<?xml version="1.0" encoding="UTF-8" standalone="no"?>
<!-- Created with Inkscape (http://www.inkscape.org/) -->

<svg
   xmlns:dc="http://purl.org/dc/elements/1.1/"
   xmlns:cc="http://creativecommons.org/ns#"
   xmlns:rdf="http://www.w3.org/1999/02/22-rdf-syntax-ns#"
   xmlns:svg="http://www.w3.org/2000/svg"
   xmlns="http://www.w3.org/2000/svg"
   xmlns:sodipodi="http://sodipodi.sourceforge.net/DTD/sodipodi-0.dtd"
   xmlns:inkscape="http://www.inkscape.org/namespaces/inkscape"
   version="1.1"
   id="svg4485"
   xml:space="preserve"
   width="108"
   height="108"
   viewBox="0 0 108 108"
   sodipodi:docname="cls_logo_white.svg"
   inkscape:version="0.92.1 r15371"><title
     id="title4745">Canadian Light Source</title><metadata
     id="metadata4491"><rdf:RDF><cc:Work
         rdf:about=""><dc:format>image/svg+xml</dc:format><dc:type
           rdf:resource="http://purl.org/dc/dcmitype/StillImage" /><dc:title>Canadian Light Source</dc:title></cc:Work></rdf:RDF></metadata><defs
     id="defs4489"><linearGradient
       x1="0"
       y1="0"
       x2="1"
       y2="0"
       gradientUnits="userSpaceOnUse"
       gradientTransform="matrix(0,-36.52713,-36.52713,0,340.02393,338.57031)"
       spreadMethod="pad"
       id="linearGradient4511"><stop
         style="stop-opacity:1;stop-color:#0079c1"
         offset="0"
         id="stop4507" /><stop
         style="stop-opacity:1;stop-color:#4f2683"
         offset="1"
         id="stop4509" /></linearGradient><clipPath
       clipPathUnits="userSpaceOnUse"
       id="clipPath4521"><path
         d="M 0,648 H 828 V 0 H 0 Z"
         id="path4519"
         inkscape:connector-curvature="0" /></clipPath></defs><sodipodi:namedview
     pagecolor="#ffffff"
     bordercolor="#666666"
     borderopacity="1"
     objecttolerance="10"
     gridtolerance="10"
     guidetolerance="10"
     inkscape:pageopacity="0"
     inkscape:pageshadow="2"
     inkscape:window-width="1130"
     inkscape:window-height="906"
     id="namedview4487"
     showgrid="false"
     fit-margin-top="0"
     fit-margin-left="0"
     fit-margin-right="0"
     fit-margin-bottom="0"
     inkscape:zoom="5.2902063"
     inkscape:cx="51.08211"
     inkscape:cy="49.802185"
     inkscape:window-x="776"
     inkscape:window-y="0"
     inkscape:window-maximized="0"
     inkscape:current-layer="g4493" /><g
     id="g4493"
     inkscape:groupmode="layer"
     inkscape:label="cls_horiz_colour_white_type"
     transform="matrix(1.3333333,0,0,-1.3333333,-410.79452,642.27747)"><g
       id="g4495"
       transform="translate(8.5723987,118.54428)"
       style="fill:#ffffff;fill-opacity:1"><g
         id="g4497"
         style="fill:#ffffff;fill-opacity:1"><g
           id="g4503"
           style="fill:#ffffff;fill-opacity:1"><g
             id="g4505"
             style="fill:#ffffff;fill-opacity:1"><path
               d="m 341.448,334.432 c 1.88,6.727 2.914,14.372 2.914,14.372 v 0 c 0,0 -4.751,-10.105 -7.19,-17.414 v 0 c -0.386,-1.16 -0.734,-2.585 -1.095,-3.839 v 0 c -0.146,0.401 -0.319,1.205 -0.472,1.583 v 0 c -2.365,5.909 -6.964,13.077 -6.964,13.077 v 0 c 0,0 1.046,-7.368 2.951,-13.075 v 0 c -2.413,5.846 -7.075,12.941 -7.075,12.941 v 0 c 0,0 1.413,-8.601 3.597,-14.419 v 0 c -2.495,5.074 -5.804,10.116 -5.804,10.116 v 0 c 0,0 1.803,-9.16 4.126,-14.963 v 0 c 0.167,-0.418 0.349,-0.847 0.541,-1.28 v 0 c -1.128,0.542 -2.268,1.116 -3.35,1.559 v 0 c -6.069,2.468 -15.455,4.677 -15.455,4.677 v 0 c 0,0 5.483,-4.053 10.835,-6.703 v 0 c -6.075,2.349 -14.921,4.296 -14.921,4.296 v 0 c 0,0 7.065,-5.006 12.953,-7.49 v 0 c -5.756,1.951 -12.503,3.481 -12.503,3.481 v 0 c 0,0 7.526,-4.869 13.49,-7.293 v 0 c 4.944,-2.011 12.291,-3.981 14.672,-4.584 v 0 c -8.638,-3.416 -14.01,-6.964 -13.041,-9.342 v 0 c 1.634,-4.015 19.027,-3.88 38.675,0.713 v 0 c 3.405,0.794 3.605,1.403 1.502,0.93 v 0 c -19.49,-4.407 -31.326,-4.528 -32.733,-1.36 v 0 c -1.224,2.762 10.045,9.483 46.698,19.6 v 0 c -1.555,0.057 -11.143,-1.97 -18.974,-3.928 v 0 c -0.329,-0.085 -0.664,-0.171 -1,-0.258 v 0 c -7.69,-1.735 -14.856,-3.917 -20.633,-6.164 v 0 c -1.685,1.037 -7.815,4.933 -13.026,7.049 v 0 c -0.045,0.019 -0.091,0.038 -0.137,0.055 v 0 c 3.773,-1.208 8.181,-2.13 10.788,-2.791 v 0 c 0.747,-0.189 1.35,-0.337 1.763,-0.435 v 0 c 0.382,-0.094 0.6,-0.146 0.6,-0.146 v 0 c 0,0 -0.217,0.137 -0.599,0.372 v 0 c 0,0.002 -0.003,0.002 -0.004,0.004 v 0 c -0.022,0.011 -0.044,0.025 -0.065,0.038 v 0 c -0.536,0.329 -1.365,0.828 -2.39,1.427 v 0 c -2.211,1.286 -5.233,3.119 -8.22,4.561 v 0 c 1.992,-0.696 4.51,-1.036 6.699,-1.686 v 0 c 1.037,-0.31 2.049,-0.594 2.999,-0.856 v 0 c -0.204,0.731 -0.42,1.475 -0.647,2.22 v 0 c -0.509,1.669 -0.767,3.414 -1.354,4.886 v 0 c -0.081,0.2 -0.171,0.407 -0.257,0.61 v 0 c 1.602,-3.018 4.148,-6.915 4.321,-7.014 v 0 c 0.14,0.619 -0.689,6.727 -1.593,9.835 v 0 c 0.062,-0.162 0.124,-0.323 0.186,-0.48 v 0 c 0.333,-0.831 1.44,-2.307 2.551,-4.519 v 0 c 0.487,-0.963 0.854,-1.653 1.077,-2.069 v 0 c 0.449,1.045 0.849,2.177 1.376,3.277 v 0 c 1.274,2.665 2.498,5.384 3.145,7.114 v 0 c -0.946,-3.339 -1.708,-6.976 -2.362,-9.822 v 0 c -0.153,-0.67 -0.701,-3.305 -0.665,-3.339 v 0 c 0.113,-0.096 1.602,2.642 1.858,3.222 v 0 c 1.393,3.189 3.308,7.382 4.64,11.003 v 0 c -0.179,-0.505 -0.352,-1 -0.513,-1.483 v 0 c -0.716,-2.14 -1.252,-4.795 -1.854,-7.103 v 0 c -0.288,-1.107 -0.56,-2.198 -0.808,-3.23 v 0 c 0.8,0.672 1.894,1.51 2.834,2.264 v 0 c 1.491,1.198 3.537,2.813 5.084,4.2 v 0 c -3.094,-3.325 -7.205,-8.215 -7.418,-8.702 v 0 c 0.287,0.123 5.055,3.507 8.696,6.398 v 0 c -1.545,-1.469 -3.059,-3.385 -4.653,-5.048 v 0 c -0.715,-0.745 -1.418,-1.489 -2.099,-2.22 v 0 c 1.12,0.262 2.321,0.546 3.559,0.856 v 0 c 2.594,0.645 5.7,1.134 8.203,1.847 v 0 c -3.985,-1.45 -8.408,-3.375 -11.606,-4.722 v 0 c -1.419,-0.599 -2.574,-1.098 -3.322,-1.427 v 0 c -0.032,-0.013 -0.061,-0.027 -0.092,-0.038 v 0 c -0.002,-0.002 -0.003,-0.002 -0.005,-0.004 v 0 c -0.013,0.022 -0.676,-0.296 -0.719,-0.317 v 0 c -0.081,-0.034 -0.123,-0.055 -0.123,-0.055 v 0 c 0,0 0.042,0.011 0.116,0.028 v 0 c 0.036,0.006 0.085,0.015 0.141,0.027 v 0 c 0.111,0.024 0.259,0.055 0.439,0.091 v 0 c 0.475,0.098 1.176,0.246 2.047,0.435 v 0 c 3.772,0.819 10.696,2.41 15.917,4.086 v 0 c 7.548,2.424 18.261,7.296 18.261,7.296 v 0 c 0,0 -9.935,-1.887 -17.527,-4.214 v 0 c 7.056,2.614 15.017,6.621 15.017,6.621 v 0 c 0,0 -10.711,-2.099 -18.399,-4.568 v 0 c -1.372,-0.442 -3.005,-1.126 -4.487,-1.668 v 0 c 0.474,0.433 1.426,1.173 1.865,1.593 v 0 c 6.121,5.803 13.429,14.65 13.429,14.65 v 0 c 0,0 -5.691,-4.291 -11.155,-8.955 v 0 c 5.696,5.733 11.765,13.258 11.765,13.258 v 0 c 0,0 -8.15,-6.149 -14.305,-11.75 v 0 c 5.243,5.486 10.268,11.884 10.268,11.884 v 0 c 0,0 -10.147,-7.068 -15.816,-13.489 v 0 c -0.43,-0.486 -0.951,-0.914 -1.439,-1.392 v 0 c 0.43,1.139 1.079,2.435 1.428,3.477 v 0 c 2.397,7.178 4.06,17.235 4.06,17.235 v 0 c 0,0 -4.029,-8.314 -6.592,-15.318 v 0 c 0.122,0.339 0.238,0.672 0.347,0.997 v 0 c 2.395,7.179 4.082,17.354 4.082,17.354 v 0 c 0,0 -4.533,-9.421 -7.054,-16.643"
               style="fill:#ffffff;fill-opacity:1;stroke:none"
               id="path4513"
               inkscape:connector-curvature="0" /></g></g></g></g><ellipse
       style="opacity:1;fill:#ffffff;fill-opacity:1;stroke:none;stroke-width:34.05091476;stroke-linecap:round;stroke-linejoin:round;stroke-miterlimit:4;stroke-dasharray:none;stroke-opacity:1"
       id="path4501"
       cx="388.74149"
       cy="-442.7081"
       transform="scale(1,-1)"
       rx="0.35442853"
       ry="23.10874" /></g></svg>