<?xml version="1.0" encoding="UTF-8" standalone="no"?>
<!-- Created with Inkscape (http://www.inkscape.org/) -->

<svg
   xmlns:dc="http://purl.org/dc/elements/1.1/"
   xmlns:cc="http://creativecommons.org/ns#"
   xmlns:rdf="http://www.w3.org/1999/02/22-rdf-syntax-ns#"
   xmlns:svg="http://www.w3.org/2000/svg"
   xmlns="http://www.w3.org/2000/svg"
   xmlns:sodipodi="http://sodipodi.sourceforge.net/DTD/sodipodi-0.dtd"
   xmlns:inkscape="http://www.inkscape.org/namespaces/inkscape"
   width="19.719616"
   height="15.047691"
   id="svg3173"
   version="1.1"
   inkscape:version="0.48.3.1 r9886"
   sodipodi:docname="notify-done.svg">
  <defs
     id="defs3175">
    <linearGradient
       id="linearGradient4141">
      <stop
         style="stop-color:#5ae100;stop-opacity:1;"
         offset="0"
         id="stop4143" />
      <stop
         style="stop-color:#ebff16;stop-opacity:1;"
         offset="1"
         id="stop4145" />
    </linearGradient>
  </defs>
  <sodipodi:namedview
     id="base"
     pagecolor="#ffffff"
     bordercolor="#666666"
     borderopacity="1.0"
     inkscape:pageopacity="0.0"
     inkscape:pageshadow="2"
     inkscape:zoom="1.4"
     inkscape:cx="7.9947319"
     inkscape:cy="7.953857"
     inkscape:document-units="px"
     inkscape:current-layer="layer1"
     showgrid="false"
     fit-margin-top="0"
     fit-margin-left="0"
     fit-margin-right="0"
     fit-margin-bottom="0"
     inkscape:window-width="1150"
     inkscape:window-height="888"
     inkscape:window-x="657"
     inkscape:window-y="123"
     inkscape:window-maximized="0"
     inkscape:showpageshadow="false">
    <inkscape:grid
       type="xygrid"
       id="grid4090"
       empspacing="5"
       visible="true"
       enabled="true"
       snapvisiblegridlinesonly="true"
       originx="-29.905886px"
       originy="-1.7411355px" />
  </sodipodi:namedview>
  <metadata
     id="metadata3178">
    <rdf:RDF>
      <cc:Work
         rdf:about="">
        <dc:format>image/svg+xml</dc:format>
        <dc:type
           rdf:resource="http://purl.org/dc/dcmitype/StillImage" />
        <dc:title></dc:title>
      </cc:Work>
    </rdf:RDF>
  </metadata>
  <g
     inkscape:label="Layer 1"
     inkscape:groupmode="layer"
     id="layer1"
     transform="translate(-604.54639,-520.06195)">
    <rect
       style="fill:#8ca6ad;fill-opacity:1;stroke:none"
       id="rect3298"
       width="19.719616"
       height="15.047691"
       x="604.54639"
       y="520.06195"
       ry="7.5238366"
       inkscape:export-filename="/users/kathryn/Code/cmcf-website/cmcf/media/img/notify-done.png"
       inkscape:export-xdpi="83.99884"
       inkscape:export-ydpi="83.99884" />
    <rect
       style="fill:#8ca6ad;fill-opacity:1;stroke:none"
       id="rect4068-3"
       width="9.4311209"
       height="15.047657"
       x="604.54639"
       y="520.06189"
       ry="0" />
    <path
       style="fill:#ffffff;stroke:#ffffff;stroke-width:0.29488602;stroke-linecap:butt;stroke-linejoin:miter;stroke-miterlimit:4;stroke-opacity:1;stroke-dasharray:none"
       d="m 606.66029,523.17762 c 1.53663,-0.29986 1.92705,0.0683 3.1719,0.30035 2.93318,0.84958 3.78493,0.75788 6.07778,-0.12937 0.47003,0.37896 0.26971,2.28472 0.0103,3.44937 -0.48975,2.19478 -1.03408,3.26936 -1.46535,3.20949 -0.64801,-0.85749 -2.07594,-2.27691 -4.36985,-2.7439 0,0 -0.71892,1.99477 -0.46787,3.63375 0.0982,0.64097 0.29225,0.39962 0.22774,0.8321 -0.0646,0.4325 -0.66342,0.39359 -0.66342,0.39359 0,0 -0.85885,-0.057 -1.1852,-0.19512 -0.3263,-0.13823 -0.27436,-0.45332 -0.27436,-0.45332 0,0 1.00507,-3.74259 0.47323,-4.7657 -0.77385,-0.29797 -1.01624,-0.22137 -1.94008,-0.88252 -0.1475,-1.31352 0.40514,-2.64872 0.40514,-2.64872 z"
       id="path4007-6-1"
       inkscape:connector-curvature="0"
       sodipodi:nodetypes="ccccccsscscccc" />
    <path
       sodipodi:type="arc"
       style="fill:#8ca6ad;fill-opacity:1;stroke:#ffffff;stroke-width:0.59814637999999998;stroke-miterlimit:4;stroke-dasharray:none"
       id="path3067-7-6-9"
       sodipodi:cx="-1.6128527"
       sodipodi:cy="4.1418495"
       sodipodi:rx="0.82288402"
       sodipodi:ry="3.340909"
       d="m -0.78996867,4.1418495 a 0.82288402,3.340909 0 1 1 -3.53e-6,-0.00978"
       sodipodi:start="0"
       sodipodi:end="6.2802578"
       sodipodi:open="true"
       transform="matrix(0.90667882,0.23740665,-0.20638505,0.91387157,617.36219,523.30035)" />
    <g
       id="g4424"
       transform="matrix(0.97611144,0.21727047,-0.21727047,0.97611144,129.39707,-121.5033)">
      <path
         sodipodi:nodetypes="sccccs"
         inkscape:connector-curvature="0"
         id="path4043-97"
         d="m 620.38043,523.20061 c -0.10208,-0.0329 -0.26839,-0.0331 -0.40023,9.7e-4 -0.79537,0.47091 -1.7182,0.91607 -2.46518,1.27324 0.90277,-0.40903 1.95855,-0.5763 2.73325,-0.74023 0.21,-0.085 0.33433,-0.19937 0.29273,-0.34751 -0.0241,-0.0845 -0.0584,-0.15349 -0.1604,-0.18654 z"
         style="fill:#ffffff;fill-opacity:1;stroke:#ffffff;stroke-width:0.81003422;stroke-linecap:round;stroke-linejoin:round;stroke-miterlimit:4;stroke-opacity:1;stroke-dasharray:none" />
      <path
         sodipodi:nodetypes="ccccc"
         inkscape:connector-curvature="0"
         id="path4045-4"
         d="m 617.96653,527.27134 c 1.43217,0.0827 2.92074,0.33878 4.30583,0.59923 0.34315,0.0173 0.63759,-0.11667 0.64565,-0.276 0.007,-0.15904 -0.28797,-0.30315 -0.63045,-0.32046 -1.4357,0.0513 -2.99212,0.0725 -4.32105,-0.003 z"
         style="fill:#ffffff;fill-opacity:1;stroke:#ffffff;stroke-width:0.81003422;stroke-linecap:round;stroke-linejoin:round;stroke-miterlimit:4;stroke-opacity:1;stroke-dasharray:none" />
      <path
         sodipodi:nodetypes="sccccs"
         inkscape:connector-curvature="0"
         id="path4043-9-8"
         d="m 620.42921,531.36459 c -0.0397,-0.0997 -0.14552,-0.22793 -0.25594,-0.30772 -0.86993,-0.3124 -1.8013,-0.7394 -2.55275,-1.08707 0.89075,0.4346 1.69282,1.14124 2.3131,1.63347 0.19943,0.10751 0.36678,0.13042 0.45438,0.004 0.0497,-0.0724 0.081,-0.1429 0.0412,-0.24253 z"
         style="fill:#ffffff;fill-opacity:1;stroke:#ffffff;stroke-width:0.81003422;stroke-linecap:round;stroke-linejoin:round;stroke-miterlimit:4;stroke-opacity:1;stroke-dasharray:none" />
    </g>
    <path
       style="fill:#25f519;fill-opacity:1;stroke:none"
       d="m 613.13314,535.25753 c -0.45212,-0.56952 -0.84635,-1.04152 -1.31403,-1.57338 -1.27367,-1.44836 -2.74619,-2.90673 -4.18434,-4.14409 -0.28306,-0.24353 -0.61869,-0.52223 -0.79291,-0.65839 -0.0162,-0.0125 -0.0292,-0.0234 -0.0293,-0.0248 -5e-5,-0.004 0.009,-0.0126 0.0742,-0.0821 0.44361,-0.47771 1.0527,-1.25166 1.71468,-2.17886 0.12901,-0.18068 0.2946,-0.4168 0.36836,-0.52522 0.0152,-0.0222 0.0282,-0.0403 0.029,-0.0402 0.005,0.002 0.0989,0.0846 0.20047,0.17363 0.82594,0.72508 1.70971,1.60435 2.60156,2.58836 0.37789,0.41694 0.83237,0.94201 1.08758,1.25653 0.0182,0.0223 0.0334,0.0407 0.034,0.0407 4.3e-4,7e-5 0.0115,-0.0203 0.0243,-0.0449 0.83362,-1.62471 2.25766,-3.55953 4.20223,-5.70959 0.75197,-0.83142 1.58099,-1.69304 2.45399,-2.55045 0.61777,-0.60672 1.28964,-1.23984 1.8376,-1.73151 0.11847,-0.1063 0.11951,-0.10716 0.12199,-0.10444 0.002,0.002 0.0102,0.0229 0.0214,0.0489 0.24308,0.57855 0.59732,1.23604 1.04849,1.94619 0.25313,0.3984 0.57417,0.86372 0.82505,1.19585 0.0225,0.0297 0.0413,0.0552 0.0418,0.0568 4.4e-4,0.002 -0.005,0.006 -0.0123,0.0124 -0.006,0.005 -0.045,0.0327 -0.0834,0.0609 -1.72965,1.26663 -3.66285,3.20159 -5.72455,5.72972 -1.15046,1.41072 -2.34467,3.01571 -3.45666,4.64564 -0.37504,0.54972 -0.74145,1.10391 -1.01397,1.53367 -0.0259,0.0406 -0.0498,0.0787 -0.0532,0.0844 -0.005,0.005 -0.006,0.0109 -0.006,0.0109 -0.002,0 -0.006,-0.006 -0.0141,-0.016 z"
       id="path3073-7"
       inkscape:connector-curvature="0" />
  </g>
</svg>
